<svg xmlns="http://www.w3.org/2000/svg" viewBox="0 0 340 340"><g id="Layer_2" data-name="Layer 2"><path d="M168.324,226.893l-2.074-16.236s-5.747-1.314-7.061-6.4a43.844,43.844,0,0,1-1-6.054,8.519,8.519,0,0,1,6.823-9.251,98.083,98.083,0,0,1,26.125-1.475A12.451,12.451,0,0,1,202.4,197.64c1.236,6.68,2.837,16.59,3.939,28.028l-28.595,7.979Z" style="fill:#ffcac0"/><path d="M76.86,326.415h59.206s7.015-96.308-43.2-133l-39.846,3.063S50.225,269.686,76.86,326.415Z" style="fill:#a7b7ea"/><path d="M131.669,211.476A116.459,116.459,0,0,1,153.223,229l16.754,26.286-1.653-28.4,38.016-1.225s4.562,45.67,7.388,83.5a16.048,16.048,0,0,1-16.008,17.244H183.541c-6.981-1.238-13.162-1.557-17.713,0H136.066s-1.673-15.961-3.677-26.592l-16.547-84.369Z" style="fill:#f7f7f7"/><path d="M29.174,234.459c-5.6,12.65-17.378,45.148-15.9,91.956H76.86L69.9,301.635,48.45,233.992Z" style="fill:#f7f7f7"/><path d="M52.57,181.563c.294,4.595.5,9.74.447,14.915,0,0,4.652,11.1,26.561,23.26,0,0,9.722-9.516,13.285-26.323l-6.543-4.891C73.52,183.708,52.57,181.563,52.57,181.563Z" style="fill:#ffcac0"/><path d="M83.9,231.188l1-.1a4.313,4.313,0,0,1,4.328,2.487L115.3,290.068a7.647,7.647,0,0,1,.54,4.833,72.581,72.581,0,0,1-6.738,18.4,2.926,2.926,0,0,1-3.854,1.229c-4.316-2.091-13.227-7.244-19.183-16.412a7.82,7.82,0,0,1-1.209-3.265c-.871-6.785-4.113-33.4-4.859-59.225A4.321,4.321,0,0,1,83.9,231.188Z" style="fill:#3c3c4f"/><path d="M149.446,117.541l7.051,14.073a1.952,1.952,0,0,1-.377,2.266l-12.272,12.059a1.951,1.951,0,0,0,.886,3.283l17.764,4.53a1.951,1.951,0,0,1,1.465,1.755l1,14.277a1.951,1.951,0,0,0,3.091,1.444l16.956-12.27a1.951,1.951,0,0,1,1.725-.282l23.684,7.391a1.952,1.952,0,0,0,2.405-2.558l-6.551-17.2a1.951,1.951,0,0,1,.446-2.077l14.3-14.262a1.951,1.951,0,0,0-1.044-3.3l-19.641-3.41a1.952,1.952,0,0,1-1.616-1.831l-.941-20a1.952,1.952,0,0,0-3.232-1.379l-19.59,17.074a1.95,1.95,0,0,1-1.533.464l-21.986-2.852A1.952,1.952,0,0,0,149.446,117.541Z" style="fill:#ffbe71"/><path d="M294.957,26.7s-12.045,4.067-8.134,18.459c1.653,6.085,5.6,8.535,9.6,9.336a15.729,15.729,0,0,0,18.05-10.52,14.986,14.986,0,0,0-.9-11.174C307.785,20.445,294.957,26.7,294.957,26.7Z" style="fill:#f74f73"/><path d="M241.831,109.23c2.275-7.4-5.409-14.1-12.544-11.106a21.244,21.244,0,0,0-2.854,1.477c-6.134,3.76-3.3,9.02-.386,12.38a9.323,9.323,0,0,0,8.965,3.088A8.469,8.469,0,0,0,241.831,109.23Z" style="fill:#b21f42"/><path d="M266.3,72.824l-2.615-4.046a10.162,10.162,0,0,1-1.252-8.235c.334-1.2.454-1.928.454-1.928a36.53,36.53,0,0,0-2.057-21.168,11.239,11.239,0,0,1,1.061-10.615l2.025-3.023a5.355,5.355,0,0,0-.843-6.941L261.028,15a5.358,5.358,0,0,0-6.854-.3l-2.268,1.73a11.32,11.32,0,0,1-11.552,1.3c-8.438-3.833-18.483-3.818-28-.1-8.86,3.459-14.534,10.97-17.881,17.154a11.624,11.624,0,0,1-9.149,6.1l-8.729.793a8.535,8.535,0,0,1-8.039-4.2c-5.55-9.145-17.838-5.454-17.838-5.454-15.174,4.536-12.984,23.9-12.984,23.9s1.767,11.615,15.98,10.52A18.316,18.316,0,0,0,167.9,58.571a8.694,8.694,0,0,1,9.489-3.521l5.719,1.57a11.319,11.319,0,0,1,7.765,7.128c2.876,8.338,10.328,16.9,28.055,20.053,11.676,2.08,20.309.6,26.672-2.47a10.284,10.284,0,0,1,9.089-.011l2.573,1.287a7.8,7.8,0,0,1,4.3,8,15.494,15.494,0,0,0,7.769,15.882q.441.242.914.469c12.866,6.2,20.18-10.852,20.18-10.852a19.873,19.873,0,0,0,1.177-5.6c.644-9.459-8.613-15.5-17.212-13.993A8.075,8.075,0,0,1,266.3,72.824Z" style="fill:#f74f73"/><path d="M212.737,37.2a6.592,6.592,0,0,1,9,4.78,16.728,16.728,0,0,1-.209,7.549c-1.127,4.2-5.592,5.627-9.3,6.072a6.631,6.631,0,0,1-7.382-5.849,12.461,12.461,0,0,1,1.032-6.706C207.222,40.108,210.034,38.3,212.737,37.2Z" style="fill:#b21f42"/><path d="M244.352,32.511a6.766,6.766,0,0,0-10.7.785,7.938,7.938,0,0,0-1.039,5.5,11.559,11.559,0,0,0,.848,3.03,6.773,6.773,0,0,0,11.827.857C247.081,39.986,247.926,36.356,244.352,32.511Z" style="fill:#b21f42"/><path d="M239.733,65.554a6.766,6.766,0,0,0-5.919-8.943,7.943,7.943,0,0,0-5.308,1.787,11.533,11.533,0,0,0-2.228,2.223,6.773,6.773,0,0,0,5.04,10.733C234.55,71.593,238.128,70.553,239.733,65.554Z" style="fill:#b21f42"/><path d="M326.861,99.91a12.037,12.037,0,0,0-12.487-12.029A12.561,12.561,0,0,0,302.8,99.4a11.94,11.94,0,0,0,.925,5.156,6.53,6.53,0,0,1-1.051,6.894l-6.946,7.854a8.728,8.728,0,0,1-7.634,2.81,24.648,24.648,0,0,0-5.782-.039c-14.558,1.659-23.28,16.831-23.28,16.831s-7.39,11.748-1.68,23.511a11.422,11.422,0,0,1-.421,11.037l-2.471,4a8.633,8.633,0,0,1-7,3.975,13.168,13.168,0,0,0-3.733.744,13.987,13.987,0,0,0-9.406,12.368,13.8,13.8,0,1,0,27.287-2.159,8.526,8.526,0,0,1,2.944-8.174l3.831-3.262a11.273,11.273,0,0,1,10.545-2.182,33.042,33.042,0,0,0,28.025-3.881,7.957,7.957,0,0,1,6.109-1.195,6.863,6.863,0,0,0,7.5-3.329l.874-1.554a6.863,6.863,0,0,0-1.557-8.612l-.1-.081a7.088,7.088,0,0,1-2.525-5.873,28.154,28.154,0,0,0-5.511-18.78q-.337-.465-.7-.909a8.683,8.683,0,0,1-1.286-8.468l3.907-10.58a6.624,6.624,0,0,1,4.477-4.016A12.034,12.034,0,0,0,326.861,99.91Z" style="fill:#f74f73"/><path d="M319.111,204.308c-2.966-7.146-13.16-7.406-16.745-.549a21.063,21.063,0,0,0-1.255,2.958c-2.325,6.808,3.214,9.051,7.6,9.779a9.324,9.324,0,0,0,8.874-3.341A8.47,8.47,0,0,0,319.111,204.308Z" style="fill:#b21f42"/><path d="M286.264,143.232c-2.607-6.279-11.566-6.508-14.716-.482a18.494,18.494,0,0,0-1.1,2.6c-2.043,5.983,2.824,7.953,6.679,8.594a8.194,8.194,0,0,0,7.8-2.937A7.444,7.444,0,0,0,286.264,143.232Z" style="fill:#b21f42"/><path d="M305.656,157.907a5.832,5.832,0,0,0-10.5-.345,13.163,13.163,0,0,0-.787,1.855c-1.458,4.268,2.015,5.675,4.765,6.131a5.845,5.845,0,0,0,5.563-2.095A5.308,5.308,0,0,0,305.656,157.907Z" style="fill:#b21f42"/><circle cx="169.278" cy="81.575" r="3.766" style="fill:#b21f42"/><circle cx="300.602" cy="142.45" r="3.766" style="fill:#b21f42"/><path d="M50.916,164.664s1.033,7.238,1.653,16.9c16.237,8.72,33.751,6.961,33.751,6.961V174.719Z" style="fill:#e5837c"/><path d="M40.392,141.448l4.931,21.868s5.878,7.468,21.886,13.26c18.587-12.321,32.9-26.992,32.916-45.086-1.736-6.54-3.567-13.51-5.251-20.058l-63.851-5.6Z" style="fill:#ffcac0"/><path d="M78.026,179.768s15.775,3.232,24.5-7.814a20.813,20.813,0,0,0,3.535-18.34c-1.395-5.15-3.576-13.24-5.934-22.124a28.171,28.171,0,0,1-2.715,3.264,7.172,7.172,0,0,1-7.252,1.811,10.494,10.494,0,0,0-5.765-.248,15.837,15.837,0,0,0-5.67,3.821,20.43,20.43,0,0,1-11.516,6.341c-5.978.974-10.632,1.245-10.632,1.245C66.7,158.612,67.21,176.571,67.21,176.571A97.172,97.172,0,0,0,78.026,179.768Z" style="fill:#bdf2dc"/><path d="M68.315,132.514a2.972,2.972,0,0,1-.26-5.933l3.908-.349a2.973,2.973,0,1,1,.527,5.922l-3.908.349C68.492,132.51,68.4,132.514,68.315,132.514Z" style="fill:#e5837c"/><path d="M85.375,127.789a2.973,2.973,0,0,1-1.852-5.3l2.568-2.043a2.973,2.973,0,0,1,3.7,4.652l-2.569,2.043A2.956,2.956,0,0,1,85.375,127.789Z" style="fill:#e5837c"/><path d="M94.874,111.432c-1.183-4.6-2.294-8.992-3.248-12.877l-60.6,7.276,3.444,13.089a71.976,71.976,0,0,0,7.463,3.456c20.552,8.174,21.019-6.315,21.019-6.315C76.292,122.268,88.859,113.94,94.874,111.432Z" style="fill:#e5837c"/><path d="M42.477,115.247s8.835,21.779-.993,37.874c0,0-17.786-2.628-23.45-24.16s7.549-27.9,7.549-27.9-2.841-18.139,20.578-25.54c19.9-6.288,42.268-16.04,48.546-18.83a1.8,1.8,0,0,1,2.439,1.084c1.332,3.982,3.393,13.641-4.176,21.7l8.5-3.324a1.8,1.8,0,0,1,2.46,1.608c.287,8.506-2.472,35.529-50.263,28.816a23.765,23.765,0,0,1,1.674,5.707,5.328,5.328,0,0,1-5.548,6.184A10.843,10.843,0,0,1,42.477,115.247Z" style="fill:#5c5c6d"/><path d="M48.848,155.989A10.162,10.162,0,0,1,42.1,167.816a7.882,7.882,0,0,1-5.843-.363c-7.1-3.368-8.327-15.484-8.327-15.484s-1.642-8.732,6.37-10.621c3.434-.81,6.389.751,8.645,2.8a18.319,18.319,0,0,1,5.512,9.916Z" style="fill:#ffcac0"/><path d="M39.935,149.324a6.382,6.382,0,0,0-4.444-1.888,1.333,1.333,0,0,0-1.273,1.376,1.351,1.351,0,0,0,1.367,1.3,4.6,4.6,0,0,1,4,3.813s-1.826-.244-1.8,2.421,1.118,4.308,4.121,4.127a1.342,1.342,0,0,0,1.161-1.327C43.081,154.639,42.026,151.332,39.935,149.324Z" style="fill:#e5837c"/><path d="M69.9,301.635,48.45,233.992,32.018,228.58s-1.136,2.029-2.841,5.88l9.306,8.562L26.634,268.914S42.844,290.25,69.9,301.635Z" style="fill:#a7bad6"/><path d="M148.527,235.561l-18.871-12.836,2.011-11.247c-4.4-2.79-7.317-4.237-7.317-4.237l-8.508,8.213,16.547,84.369C150.811,271.266,148.527,235.561,148.527,235.561Z" style="fill:#a7bad6"/><path d="M53.017,196.478S55.408,247.714,69.9,301.635c0,0-21.476-20.682-34.958-36.336l10.413-23.77L32.018,228.58S44.829,205.54,53.017,196.478Z" style="fill:#f7f7f7"/><path d="M92.863,193.415s29.516,46.553,39.526,106.408c0,0,7.15-24.31,8.988-61.285l-18.385-13.892,1.358-17.4S107.966,198.261,92.863,193.415Z" style="fill:#f7f7f7"/><path d="M49.549,195.16c-8.33,9.781-20.053,30.8-20.566,31.723h0c-.947,1.684-21.114,38.387-19.177,99.629a3.467,3.467,0,0,0,3.464,3.358c.037,0,.074,0,.112,0a3.467,3.467,0,0,0,3.356-3.575c-1.515-47.907,11.224-80.833,16.285-91.914l8.189,7.95L31.765,263.9a3.468,3.468,0,0,0,.549,3.654c12.092,14.041,30.74,32.263,34.5,35.912l6.7,23.879a3.468,3.468,0,0,0,6.678-1.875L73.243,300.7c-10.2-37.956-14.382-74.924-15.939-92.972a90.912,90.912,0,0,0,20.589,15.028A3.468,3.468,0,0,0,82,222.2c.357-.349,7.456-7.417,11.962-20.016,8.362,15.032,27.437,52.96,35,98.2,0,.013.008.024.01.037s0,.022,0,.034c1.954,10.366,3.619,26.153,3.636,26.311a3.468,3.468,0,1,0,6.9-.723c-.069-.657-1.709-16.207-3.715-26.855-7.55-45.088-26.271-83.081-35.167-99.27,8.616,3.456,16.532,7.453,20.083,9.308l-1.181,15.14A3.468,3.468,0,0,0,120.9,227.4l16.916,12.781c-.589,10.691-1.677,21.318-3.236,31.619a3.468,3.468,0,1,0,6.857,1.038,342.185,342.185,0,0,0,3.4-34.142,3.468,3.468,0,0,0-1.373-2.939l-16.871-12.747.788-10.1c9.491,5.712,31.11,20.74,39.161,43.094l1.013,17.4a3.468,3.468,0,0,0,3.459,3.266c.068,0,.136,0,.2-.006a3.467,3.467,0,0,0,3.26-3.664l-1.044-17.93-1.446-24.843,31.214-1.006c1.085,11.076,4.7,48.586,7.063,80.191a12.579,12.579,0,0,1-12.55,13.517H183.537a11.382,11.382,0,0,1-10.6-7.333l-10.389-27.578a3.468,3.468,0,1,0-6.49,2.445l10.389,27.578a18.349,18.349,0,0,0,17.089,11.824h14.179a19.514,19.514,0,0,0,19.466-20.97c-2.785-37.288-7.311-82.748-7.394-83.575v0C208.657,213.577,207,203.435,205.807,197A15.924,15.924,0,0,0,191.4,184a101.807,101.807,0,0,0-27.057,1.529,11.922,11.922,0,0,0-9.6,13.018,46.665,46.665,0,0,0,1.09,6.557,12.528,12.528,0,0,0,7.25,8.1l1.787,14,.675,11.581c-14.394-21.782-37.824-33.747-39.584-34.625-1.156-.631-16.651-9.029-31.475-13.871l-4.7-3.51v-3.686a25.063,25.063,0,0,0,15.457-9,24.342,24.342,0,0,0,4.161-21.4c-1.394-5.146-3.574-13.23-5.93-22.108-2.906-10.948-5.31-20.2-7.17-27.6a29.123,29.123,0,0,0,2.76-2.459c10.432-10.682,8.176-25.226,8.075-25.84a3.467,3.467,0,0,0-4.685-2.666l-1.536.6c2.838-9.29-1.148-17.761-1.374-18.23a3.469,3.469,0,0,0-4.557-1.647c-.267.121-26.931,12.2-49.874,19.451C24.378,78.751,22.1,93.445,22.036,99.2c-4.068,3.014-12.329,11.734-7.359,30.627a38.326,38.326,0,0,0,9.847,17.723,14.3,14.3,0,0,0-.038,4.9c.219,1.989,1.89,14.149,10.277,18.125a11.177,11.177,0,0,0,4.81,1.086,12.091,12.091,0,0,0,3.531-.539,12.989,12.989,0,0,0,3.595-1.741q.651.526,1.429,1.11A235.8,235.8,0,0,1,49.549,195.16Zm112.994,8.215a39.889,39.889,0,0,1-.908-5.552,5.021,5.021,0,0,1,4.044-5.484,94.837,94.837,0,0,1,25.191-1.419,8.981,8.981,0,0,1,8.117,7.34c1.04,5.619,2.442,14.124,3.519,24.05l-31.146,1-1.674-13.108a3.512,3.512,0,0,0-2.639-2.935C167.01,207.262,163.3,206.313,162.543,203.375ZM39,264.668l9.532-21.759a3.47,3.47,0,0,0-.761-3.88L36.353,227.946C38.9,223.5,44.743,213.5,50.18,205.76a582.27,582.27,0,0,0,13.306,84.683C56.492,283.456,46.655,273.4,39,264.668ZM78.84,215.315c-15.782-9.251-21.163-17.539-22.353-19.664.032-7.492-.44-14.873-.93-20.47,2.911,1.565,11.348,5.98,27.292,8.483v4.849a3.466,3.466,0,0,0,1.392,2.777l4.727,3.534A54.454,54.454,0,0,1,78.84,215.315Zm19.548-76.868c.92,3.449,1.784,6.667,2.555,9.53a30.587,30.587,0,0,1-7.432,5.746,91.275,91.275,0,0,0-5.3-14.079c.345.069.673.148.96.233A10.7,10.7,0,0,0,98.388,138.447ZM81.244,142.5c.14-.149.284-.281.427-.417,2.9,6.043,9.317,21.359,6.812,34.158a29.052,29.052,0,0,1-9.736.119c-2.842-.671-5.605-1.452-8.241-2.33a64.085,64.085,0,0,0-1.236-7.719,67.736,67.736,0,0,0,12.286-1.154,3.468,3.468,0,1,0-1.29-6.815,60.872,60.872,0,0,1-13,1,45.3,45.3,0,0,0-4.187-8.784c1.409-.176,2.992-.4,4.68-.671A23.759,23.759,0,0,0,81.244,142.5ZM99.8,169.794a16.416,16.416,0,0,1-3.949,3.593,50.634,50.634,0,0,0-.729-12.669,39.513,39.513,0,0,0,7.845-5.125A17.287,17.287,0,0,1,99.8,169.794ZM21.384,128.067c-4.806-18.272,5.305-23.694,5.7-23.9a3.5,3.5,0,0,0,1.924-3.636c-.088-.624-1.93-15.362,18.193-21.722,18.406-5.817,39.1-14.66,47.173-18.2.964,3.912,1.487,10.7-3.937,16.477a3.468,3.468,0,0,0,3.792,5.6l6.19-2.422c-.226,4.173-1.473,10.49-6.372,15.471-7.451,7.574-20.878,10.06-39.906,7.388a3.473,3.473,0,0,0-3.619,4.911,20.775,20.775,0,0,1,1.391,4.806,1.863,1.863,0,0,1-.452,1.556,1.753,1.753,0,0,1-1.413.592,7.313,7.313,0,0,1-5.088-2.172,3.469,3.469,0,0,0-5.7,3.716,55.814,55.814,0,0,1,3.352,16.416,3.468,3.468,0,0,0,6.929-.3,61.176,61.176,0,0,0-1.509-10.9q.8.126,1.63.173a8.667,8.667,0,0,0,6.969-2.89,8.76,8.76,0,0,0,2.126-7.331q-.092-.55-.2-1.065c13,1.238,23.547-.05,31.557-3.826,1.686,6.652,3.772,14.672,6.221,23.916-.437.536-.907,1.076-1.429,1.62a3.706,3.706,0,0,1-3.761.888,13.7,13.7,0,0,0-7.7-.26c-.065.018-.128.038-.191.06a19.122,19.122,0,0,0-7.059,4.72,16.9,16.9,0,0,1-9.55,5.3c-5.711.93-10.231,1.2-10.276,1.206h-.02c-3.439.223-8.42-.362-11.131-2.729-.01-.008-.021-.013-.03-.021-3.631-3.26-7.671-4.485-11.693-3.54a11.679,11.679,0,0,0-5.623,3A32.481,32.481,0,0,1,21.384,128.067Zm19.7,36.421a4.4,4.4,0,0,1-3.346-.181c-4.344-2.059-6.066-9.869-6.362-12.7-.009-.08-.025-.188-.038-.268-.223-1.3-.609-5.6,3.752-6.63.654-.153,2.639-.623,5.52,1.991l.027.019c.008.008.014.017.023.025,4.457,3.891,10.888,4.48,14.365,4.48h.013c5.093,6.187,7.22,14.54,8.1,19.958a54.427,54.427,0,0,1-11.955-7.1,13.994,13.994,0,0,0,1.275-4.539,3.468,3.468,0,0,0-6.9-.72A6.525,6.525,0,0,1,41.08,164.488Z" style="fill:#3c3c4f"/><path d="M138.025,149.258a3.466,3.466,0,0,0,2.492,2.457l20.059,5.116,1.174,16.688a3.468,3.468,0,0,0,5.492,2.566L186.428,162.2l26.793,8.362a3.468,3.468,0,0,0,4.274-4.545l-7.631-20.036,16.276-16.228a3.469,3.469,0,0,0-1.856-5.873l-22.155-3.846L201.054,97.22a3.467,3.467,0,0,0-5.742-2.452l-22.118,19.277-24.95-3.236A3.467,3.467,0,0,0,144.7,115.8l8.2,16.368-13.955,13.712A3.469,3.469,0,0,0,138.025,149.258Zm21.535-13.912a3.468,3.468,0,0,0,.67-4.027l-6.41-12.793,20.03,2.6a3.473,3.473,0,0,0,2.725-.824l17.888-15.592.868,18.431a3.465,3.465,0,0,0,2.871,3.253l18.3,3.178-13.128,13.088a3.469,3.469,0,0,0-.792,3.691l5.891,15.466-21.637-6.752a3.471,3.471,0,0,0-3.066.5l-15.538,11.244-.912-12.962a3.468,3.468,0,0,0-2.6-3.118l-16.523-4.213Z" style="fill:#3c3c4f"/><path d="M134.307,56.427c.779,5.119,5.882,14.511,19.674,13.456a21.8,21.8,0,0,0,16.784-9.373,5.236,5.236,0,0,1,5.7-2.128l5.719,1.57a7.834,7.834,0,0,1,5.405,4.915c2.826,8.2,10.451,18.725,30.726,22.337,11.18,1.991,20.868,1.063,28.788-2.762a6.788,6.788,0,0,1,6.029-.031l2.573,1.286a4.315,4.315,0,0,1,2.411,4.417,18.88,18.88,0,0,0,9.54,19.4q.52.285,1.073.551a16.128,16.128,0,0,0,7.032,1.707,14.438,14.438,0,0,0,5.092-.939c8.256-3.092,12.568-12.959,12.772-13.434a23.138,23.138,0,0,0,1.426-6.676A15.921,15.921,0,0,0,289.7,77.566a19.013,19.013,0,0,0-15.915-4.485,4.639,4.639,0,0,1-4.574-2.152h0l-2.616-4.046a6.7,6.7,0,0,1-.823-5.423c.3-1.077.452-1.837.509-2.145a40.046,40.046,0,0,0-2.258-23.23,7.737,7.737,0,0,1,.747-7.334l2.026-3.023a8.879,8.879,0,0,0-1.39-11.436l-2.046-1.864a8.82,8.82,0,0,0-11.292-.492l-2.268,1.73a7.84,7.84,0,0,1-8.014.9c-9.284-4.217-20.183-4.28-30.691-.178-9.988,3.9-16.21,12.341-19.67,18.735a8.15,8.15,0,0,1-6.413,4.292l-8.729.794a5.063,5.063,0,0,1-4.76-2.543c-6.864-11.31-21.195-7.159-21.8-6.978-14.2,4.246-16.307,19.916-15.437,27.609Q134.3,56.361,134.307,56.427Zm17.4-21.093c.4-.116,9.821-2.774,13.888,3.929a11.969,11.969,0,0,0,11.318,5.852l8.729-.794a15.072,15.072,0,0,0,11.885-7.9c2.909-5.375,8.061-12.44,16.092-15.576,8.75-3.415,17.734-3.4,25.3.032a14.771,14.771,0,0,0,15.089-1.7l2.268-1.73a1.887,1.887,0,0,1,2.416.106l2.046,1.863a1.9,1.9,0,0,1,.3,2.447l-2.025,3.024a14.649,14.649,0,0,0-1.374,13.894,33.411,33.411,0,0,1,1.889,18.968c-.021.086-.042.184-.057.271,0,.006-.1.6-.377,1.58A13.64,13.64,0,0,0,260.77,70.65l2.615,4.045a11.493,11.493,0,0,0,11.6,5.217,12.214,12.214,0,0,1,10.08,2.811,9.02,9.02,0,0,1,3.073,7.531,17.087,17.087,0,0,1-.9,4.463h0c-.916,2.107-4.287,7.941-8.828,9.629a8.172,8.172,0,0,1-6.664-.529c-.26-.125-.51-.254-.755-.387a12,12,0,0,1-6-12.362,11.245,11.245,0,0,0-6.179-11.574l-2.573-1.287a13.477,13.477,0,0,0-6.041-1.428,14.026,14.026,0,0,0-6.107,1.417c-6.577,3.178-14.839,3.912-24.555,2.179-13.615-2.425-22.156-8.4-25.386-17.769a14.759,14.759,0,0,0-10.124-9.342l-5.72-1.57a12.169,12.169,0,0,0-13.274,4.914,14.723,14.723,0,0,1-11.582,6.359c-10.327.8-12.078-6.476-12.275-7.531C141.034,54,139.866,38.873,151.7,35.334Z" style="fill:#3c3c4f"/><path d="M314.244,84.4a15.968,15.968,0,0,0-14.915,14.837,15.353,15.353,0,0,0,1.194,6.648,3.061,3.061,0,0,1-.452,3.249l-6.946,7.853a5.283,5.283,0,0,1-4.619,1.665,28.209,28.209,0,0,0-6.593-.042c-15.807,1.8-25.143,17.264-25.862,18.493-.69,1.124-8.141,13.8-1.824,26.81a7.956,7.956,0,0,1-.251,7.7l-2.471,4a5.143,5.143,0,0,1-4.229,2.337,16.706,16.706,0,0,0-4.711.936,17.546,17.546,0,0,0-11.719,15.475,17.267,17.267,0,0,0,17.27,18.1,17.638,17.638,0,0,0,2.409-.166,17.262,17.262,0,0,0,14.466-20.648,5.094,5.094,0,0,1,1.8-4.815l3.832-3.262a7.8,7.8,0,0,1,7.308-1.5,36.726,36.726,0,0,0,30.913-4.3,4.458,4.458,0,0,1,3.443-.714,10.4,10.4,0,0,0,11.288-5.011l.874-1.555a10.344,10.344,0,0,0-2.351-12.969l-.09-.075a3.631,3.631,0,0,1-1.3-2.992,31.44,31.44,0,0,0-6.165-21.045c-.26-.36-.532-.713-.812-1.059a5.215,5.215,0,0,1-.726-5.082l3.907-10.58a3.16,3.16,0,0,1,2.175-1.882,15.562,15.562,0,0,0,11.239-14.9A15.5,15.5,0,0,0,314.244,84.4Zm2.938,23.728a10.017,10.017,0,0,0-6.778,6.149l-3.906,10.58a12.176,12.176,0,0,0,1.845,11.853q.3.372.586.764a24.678,24.678,0,0,1,4.857,16.513,10.6,10.6,0,0,0,3.756,8.758l.091.075a3.4,3.4,0,0,1,.77,4.26l-.874,1.555a3.414,3.414,0,0,1-3.709,1.647,11.339,11.339,0,0,0-8.778,1.677,29.42,29.42,0,0,1-25.135,3.457c-.059-.018-.119-.031-.179-.048l.669-.6a5.628,5.628,0,0,1,4.37-1.409l.709.078a3.468,3.468,0,0,0,.753-6.9l-.708-.076a12.56,12.56,0,0,0-9.764,3.148l-9.664,8.7-3.8,3.236a11.952,11.952,0,0,0-4.089,11.531,10.33,10.33,0,1,1-20.43,1.607,10.546,10.546,0,0,1,7.093-9.261,9.787,9.787,0,0,1,2.755-.552,12.136,12.136,0,0,0,9.78-5.614l2.472-3.995a14.854,14.854,0,0,0,.591-14.376c-4.771-9.829,1.439-20.058,1.5-20.15.022-.036.047-.077.068-.113.079-.137,8.073-13.683,20.669-15.119a20.136,20.136,0,0,1,2.293-.129,22.4,22.4,0,0,1,2.68.165,12.217,12.217,0,0,0,10.649-3.955l6.946-7.854a9.939,9.939,0,0,0,1.649-10.538,8.451,8.451,0,0,1-.656-3.665,9.058,9.058,0,0,1,8.237-8.2,8.57,8.57,0,0,1,8.893,8.563A8.6,8.6,0,0,1,317.182,108.132Z" style="fill:#3c3c4f"/></g></svg>